<!-- Generator: Adobe Illustrator 22.0.1, SVG Export Plug-In  -->
<svg version="1.1"
	 xmlns="http://www.w3.org/2000/svg" xmlns:xlink="http://www.w3.org/1999/xlink" xmlns:a="http://ns.adobe.com/AdobeSVGViewerExtensions/3.0/"
	 x="0px" y="0px" width="3230.5px" height="1942.1px" viewBox="0 0 3230.5 1942.1"
	 style="enable-background:new 0 0 3230.5 1942.1;" xml:space="preserve">
 <style>
	.st0{fill:#cef4f6;}
</style>
<defs>
</defs>
<path class="st0" d="M3153.4,668.6c-42.4-129.8-127.4-320.7-188.7-424.1c-61.3-103.4-270.9-209.3-465.6-235.4s-492.1,5.8-660.8,70.7
	S1420.4,264,1284.6,345S941.8,518.7,824.8,551.2s-294.7,77.4-394.9,99.9S192,761.1,123.9,845.6S0,1078.9,0,1176.3
	c0,97.4,31.8,240.6,70.7,318.4s144.8,170.5,235.4,206.2c90.6,35.7,260.4,80.6,377.4,99.9c117,19.3,329.4,58.9,472.1,88.2
	s349.5,53.2,459.7,53.2c110.2,0,256.1-31.8,324.2-70.7c68.1-38.9,190.1-118.5,271-177c81-58.5,208.2-100.8,282.7-94
	c74.5,6.8,215.2,4.2,312.5-5.8s232.8-87,300.9-171.2c68.1-84.2,123.9-235.3,123.9-335.9S3195.8,798.4,3153.4,668.6z"/>
</svg>